<?xml version="1.0" standalone="no"?>
<!DOCTYPE svg PUBLIC "-//W3C//DTD SVG 20010904//EN"
 "http://www.w3.org/TR/2001/REC-SVG-20010904/DTD/svg10.dtd">
<svg version="1.0" xmlns="http://www.w3.org/2000/svg"
 width="4668.000000pt" height="4712.000000pt" viewBox="0 0 4668.000000 4712.000000"
 preserveAspectRatio="xMidYMid meet">

<g transform="translate(0.000000,4712.000000) scale(0.100000,-0.100000)"
fill="#000000" stroke="none">
<path d="M22575 45969 c-2486 -91 -4830 -558 -7115 -1419 -1052 -397 -2144
-910 -3125 -1468 -1556 -885 -2966 -1928 -4285 -3168 -271 -254 -848 -836
-1090 -1099 -1795 -1950 -3197 -4135 -4214 -6568 -654 -1564 -1147 -3297
-1417 -4982 -142 -884 -223 -1702 -271 -2710 -17 -367 -17 -2115 0 -2470 29
-597 64 -1060 118 -1545 329 -2974 1259 -5836 2741 -8438 1436 -2521 3359
-4741 5663 -6539 1453 -1133 3093 -2110 4785 -2848 1258 -550 2572 -983 3920
-1294 3064 -706 6301 -758 9395 -150 2381 468 4661 1317 6760 2517 2836 1621
5288 3847 7164 6505 2387 3382 3762 7332 3991 11462 29 533 38 1031 32 1815
-7 921 -22 1307 -77 1980 -373 4562 -2165 8920 -5118 12443 -676 806 -1448
1605 -2232 2308 -1934 1733 -4184 3131 -6583 4090 -2267 906 -4641 1428 -7092
1559 -559 30 -1428 38 -1950 19z m1880 -443 c1179 -67 2187 -194 3260 -412
2282 -465 4459 -1287 6486 -2449 2073 -1189 3950 -2723 5540 -4525 1441 -1635
2634 -3481 3526 -5455 1001 -2217 1623 -4583 1843 -7010 42 -465 76 -1095 82
-1495 l3 -185 -107 -215 c-171 -344 -345 -628 -561 -915 -109 -146 -137 -170
-204 -181 -71 -11 -178 38 -207 94 -8 15 -24 95 -36 177 -34 245 -80 554 -95
653 -8 50 -22 134 -30 185 -491 3099 -1224 5619 -2328 7997 -35 75 -85 180
-214 450 -295 614 -796 1514 -1236 2220 -1332 2135 -2777 3953 -4182 5258
-743 690 -1368 1169 -2185 1672 -309 191 -954 510 -1605 795 -2290 1003 -4639
1592 -7065 1770 -616 45 -1076 58 -1760 52 -547 -5 -693 -10 -1140 -37 -2311
-140 -4535 -605 -6495 -1360 -1781 -686 -3320 -1596 -4850 -2870 -3069 -2555
-5511 -6225 -6669 -10022 -485 -1589 -784 -3426 -821 -5046 -3 -125 -7 -315
-10 -422 -8 -361 14 -1144 45 -1605 170 -2474 768 -4937 1785 -7350 475 -1127
1050 -2258 1688 -3320 66 -110 126 -216 134 -235 32 -74 -12 -189 -91 -235
-49 -29 -108 -32 -291 -15 -556 52 -1099 217 -1630 494 -232 122 -261 141
-298 199 -273 427 -795 1368 -1027 1852 -32 66 -90 188 -130 270 -286 595
-585 1314 -825 1980 -1548 4307 -1701 9040 -435 13456 1100 3836 3270 7337
6230 10054 2806 2575 6209 4366 9895 5209 1331 304 2684 481 4085 536 346 13
1601 4 1925 -14z m-490 -3286 c1213 -44 2331 -187 3480 -446 3785 -853 7228
-2900 9816 -5834 1300 -1474 2365 -3157 3139 -4960 787 -1834 1275 -3806 1435
-5800 90 -1124 78 -2301 -35 -3415 -291 -2865 -1244 -5613 -2793 -8050 -1802
-2836 -4361 -5150 -7347 -6643 -206 -104 -427 -212 -490 -242 -1827 -851
-3802 -1401 -5810 -1619 -1448 -157 -2947 -144 -4390 40 -2584 328 -5069 1200
-7300 2562 -2463 1503 -4566 3587 -6096 6042 -1572 2521 -2514 5385 -2744
8340 -67 862 -74 1811 -19 2660 55 866 168 1717 339 2554 249 1212 625 2417
1110 3551 264 618 622 1336 962 1928 2002 3495 5111 6266 8803 7847 1581 678
3319 1149 4970 1350 72 8 166 20 210 25 385 46 992 92 1460 109 312 12 993 12
1300 1z"/>
<path d="M18400 30429 c-403 -42 -788 -178 -1118 -395 -156 -103 -236 -167
-376 -303 -409 -399 -659 -901 -737 -1481 -17 -123 -17 -467 0 -595 75 -583
323 -1082 742 -1490 380 -371 853 -603 1388 -682 143 -21 512 -24 646 -5 577
81 1061 318 1455 712 625 625 871 1526 651 2388 -189 736 -738 1370 -1444
1666 -375 158 -816 225 -1207 185z m480 -1093 c275 -35 467 -93 703 -214 199
-101 345 -207 510 -370 274 -270 451 -577 544 -942 42 -164 42 -211 4 -362
-234 -915 -1057 -1559 -1994 -1558 -558 0 -1069 212 -1462 605 -280 280 -469
622 -556 1008 -24 108 -22 159 17 310 146 579 564 1081 1115 1341 340 161 754
228 1119 182z"/>
<path d="M27760 30425 c-1051 -115 -1914 -880 -2155 -1910 -47 -202 -59 -315
-59 -565 0 -236 5 -292 46 -500 91 -466 332 -914 678 -1260 394 -394 878 -631
1455 -712 117 -16 492 -16 615 1 549 74 1033 309 1419 685 419 411 666 907
743 1496 16 122 16 458 0 580 -108 828 -582 1519 -1312 1912 -417 225 -947
326 -1430 273z m510 -1090 c861 -104 1552 -712 1760 -1549 38 -149 37 -189 -5
-351 -94 -358 -277 -676 -540 -940 -389 -390 -906 -605 -1456 -605 -403 0
-796 117 -1129 337 -454 300 -771 760 -885 1287 l-24 111 25 115 c85 379 256
697 524 974 344 357 764 564 1265 625 110 13 339 12 465 -4z"/>
<path d="M18605 22054 c-16 -2 -73 -9 -125 -15 -708 -80 -1368 -492 -1774
-1107 -411 -624 -516 -1422 -281 -2137 344 -1048 1344 -1750 2440 -1711 639
22 1202 261 1654 701 346 336 573 730 685 1187 55 224 70 352 70 598 0 246
-15 374 -69 596 -119 484 -372 909 -744 1247 -367 335 -823 549 -1326 623 -96
14 -468 27 -530 18z m480 -1040 c838 -118 1527 -750 1714 -1574 34 -149 34
-165 6 -297 -165 -781 -780 -1406 -1555 -1582 -167 -38 -243 -45 -460 -45
-330 0 -555 46 -843 174 -574 256 -999 765 -1159 1390 -42 162 -42 225 1 395
126 501 421 921 846 1207 426 287 935 404 1450 332z"/>
<path d="M27737 21895 c-729 -88 -1374 -485 -1777 -1092 -212 -319 -338 -647
-397 -1033 -22 -145 -25 -530 -4 -665 84 -564 306 -1023 686 -1414 211 -217
416 -367 687 -501 348 -172 695 -253 1093 -253 239 0 395 18 610 73 193 48
314 93 500 185 751 371 1257 1087 1367 1935 17 135 15 480 -5 615 -151 1058
-903 1877 -1938 2109 -243 54 -574 71 -822 41z m478 -1015 c908 -85 1652 -747
1831 -1629 25 -122 25 -126 9 -205 -41 -209 -95 -368 -188 -551 -387 -772
-1218 -1219 -2077 -1119 -844 98 -1545 710 -1756 1532 -47 185 -50 218 -24
342 81 399 293 780 591 1065 433 414 1023 620 1614 565z"/>
</g>
</svg>
